<svg xmlns="http://www.w3.org/2000/svg" width="300" height="100">
  <rect width="100%" height="100%" fill="none"/>
  <g class="currentLayer">
    <!-- Logo Shape -->
    <g clip-path="url(#clip0_29_14)" transform="translate(0, 13)">
      <path d="M19.1101 27.8824C17.9839 38.385 15.6877 59.8201 14.5694 70.2789C12.5955 57.9536 9.48745 38.5283 7.50562 26.1233C10.7291 26.2705 15.3932 26.4815 18.6087 26.6287C18.7559 26.9949 18.9629 27.5122 19.1101 27.8824Z" fill="#424242"/>
      <path d="M38.9999 0C38.9999 0.628805 38.996 1.36108 38.992 2.18092C38.9363 16.0584 38.789 55.9159 38.7254 72.217C36.0113 72.4399 19.2333 73.805 16.8535 73.996C18.2504 60.9662 22.5722 20.6113 24.3948 3.58976C24.5262 2.38389 24.6416 1.29741 24.745 0.346241C26.0901 0.314402 37.3643 0.0397978 39.0039 0L38.9999 0Z" fill="#AC6AFF"/>
      <path d="M9.82959 55.7368C9.27245 57.9178 8.55214 60.7315 7.995 62.9164C5.76245 63.0437 2.26041 63.2427 0 63.374C1.04663 56.9825 4.60439 35.233 5.58735 29.2275C6.86877 37.2508 8.55214 47.7335 9.82959 55.7368Z" fill="#AC6AFF"/>
      <path d="M19.1101 27.8824C17.9839 38.385 15.6877 59.8201 14.5694 70.2789C12.5955 57.9536 9.48745 38.5283 7.50562 26.1233C10.7291 26.2705 15.3932 26.4815 18.6087 26.6287C18.7559 26.9949 18.9629 27.5122 19.1101 27.8824Z" fill="#AC6AFF"/>
    </g>
    <defs>
      <clipPath id="clip0_29_14">
        <rect width="39" height="74" fill="white"/>
      </clipPath>
    </defs>

    <!-- Text (Vertically Centered) -->
    <text x="60" y="60" fill="#FFFFFF" font-size="32" font-family="Verdana, Geneva, sans-serif" font-weight="bold" dominant-baseline="middle">
      NASSATY
    </text>
  </g>
</svg>
